<svg width="15" height="12" viewBox="0 0 15 12" fill="none" xmlns="http://www.w3.org/2000/svg">
<path d="M7.31668 0.449463C3.58392 0.449463 0.559387 3.474 0.559387 7.20675C0.559387 8.77588 1.09542 10.2183 1.99206 11.3651H3.9023L4.03225 11.2351L4.75021 10.5172L4.00626 9.77323L3.28829 10.4879C2.6418 9.69851 2.24546 8.73364 2.14475 7.72655H3.15835V6.68696H2.14475C2.24546 5.67987 2.6418 4.715 3.28829 3.92557L4.00626 4.64028L4.75021 3.89633L4.03549 3.17837C4.82493 2.53188 5.78979 2.13554 6.79689 2.03483V3.04842H7.83647V2.03483C8.84357 2.13554 9.80843 2.53188 10.5979 3.17837L9.88315 3.89633L10.6271 4.64028L11.3451 3.92557C11.9916 4.715 12.3879 5.67987 12.4886 6.68696H11.475V7.72655H12.4886C12.3879 8.73364 11.9916 9.69851 11.3451 10.4879L10.6271 9.77323L9.88315 10.5172L10.6011 11.2351L10.7311 11.3651H12.6413C13.5379 10.2183 14.074 8.77588 14.074 7.20675C14.074 3.474 11.0494 0.449463 7.31668 0.449463V0.449463Z" fill="#1943EF"/>
</svg>
