<svg width="15" height="12" viewBox="0 0 15 12" fill="none" xmlns="http://www.w3.org/2000/svg">
<path d="M7.31668 0.449585C3.58393 0.449585 0.559387 3.47412 0.559387 7.20688C0.559387 8.776 1.09542 10.2184 1.99206 11.3652H3.9023L4.03225 11.2353L4.75021 10.5173L4.00626 9.77335L3.28829 10.4881C2.6418 9.69863 2.24546 8.73376 2.14475 7.72667H3.15835V6.68709H2.14475C2.24546 5.67999 2.6418 4.71513 3.28829 3.92569L4.00626 4.64041L4.75021 3.89645L4.03549 3.17849C4.82493 2.532 5.78979 2.13566 6.79689 2.03495V3.04854H7.83647V2.03495C8.84357 2.13566 9.80843 2.532 10.5979 3.17849L9.88315 3.89645L10.6271 4.64041L11.3451 3.92569C11.9916 4.71513 12.3879 5.67999 12.4886 6.68709H11.475V7.72667H12.4886C12.3879 8.73376 11.9916 9.69863 11.3451 10.4881L10.6271 9.77335L9.88315 10.5173L10.6011 11.2353L10.7311 11.3652H12.6413C13.5379 10.2184 14.074 8.776 14.074 7.20688C14.074 3.47412 11.0494 0.449585 7.31668 0.449585Z" fill="#6F7C8B" fill-opacity="0.5"/>
</svg>
